<?xml version="1.0" standalone="no"?>
<!DOCTYPE svg PUBLIC "-//W3C//DTD SVG 20010904//EN"
 "http://www.w3.org/TR/2001/REC-SVG-20010904/DTD/svg10.dtd">
<svg version="1.0" xmlns="http://www.w3.org/2000/svg"
 width="128.000000pt" height="128.000000pt" viewBox="0 0 128.000000 128.000000"
 preserveAspectRatio="xMidYMid meet">

<g transform="translate(0.000000,128.000000) scale(0.100000,-0.100000)"
fill="#ffffff" stroke="none">
<path d="M150 1261 c-6 -13 -10 -232 -10 -640 l0 -621 40 0 40 0 0 628 c0 475
-3 631 -12 640 -18 18 -46 14 -58 -7z"/>
<path d="M855 1220 c-39 -4 -138 -20 -220 -35 -152 -28 -289 -36 -358 -22
l-38 8 3 -113 3 -113 62 -9 63 -10 0 -89 0 -90 -65 6 -65 6 0 -109 0 -110 28
-7 c59 -17 236 -5 402 26 183 35 334 41 413 17 25 -7 48 -11 51 -8 4 3 6 144
6 313 l0 308 -52 15 c-71 19 -149 25 -233 16z m73 -195 c-2 -1 -40 -6 -85 -9
l-83 -7 0 90 0 90 43 5 c23 3 60 7 82 8 l40 3 3 -89 c1 -49 1 -90 0 -91z
m-368 36 c0 -50 -4 -92 -8 -95 -5 -3 -43 -8 -85 -12 l-77 -7 0 91 0 91 43 5
c23 3 56 7 72 9 17 2 36 5 43 6 9 1 12 -23 12 -88z m534 -80 c25 -10 26 -12
26 -102 0 -79 -2 -90 -16 -85 -9 3 -47 11 -85 18 l-69 11 0 90 0 90 59 -6 c32
-4 70 -11 85 -16z m-356 -93 l-3 -92 -65 -12 c-36 -7 -71 -13 -77 -13 -10 -1
-13 23 -13 89 0 85 1 90 23 94 60 14 113 24 125 25 10 1 12 -21 10 -91z m192
-183 l0 -95 -47 0 c-27 0 -65 -3 -85 -6 l-38 -7 0 92 c0 86 1 91 23 96 30 6
75 12 115 14 l32 1 0 -95z m-370 -54 l0 -89 -27 -6 c-16 -2 -54 -8 -85 -11
l-58 -6 0 95 0 95 63 4 c34 2 72 4 85 5 21 2 22 -1 22 -87z"/>
</g>
</svg>
